# xmcd
#
# Track frame offsets:
#	150
#	9804
#	30968
#	45170
#	53477
#	63057
#	71147
#	81179
#	98408
#	123154
#	134288
#	145660
#	162238
#	178326
#	196386
#
# Disc length: 2762 seconds
#
# Revision: 0
# Processed by: cddbd v1.5.1PL2 Copyright (c) Steve Scherf et al.
# Submitted via: dBpowerAMP V4.0
#
DISCID=b10ac80f
DTITLE=Al Traynor - All Mine (Disk 2)
DYEAR=2005
DGENRE=Country
TTITLE0=I Am A Drifter Lord
TTITLE1=Jesus At The Wreck
TTITLE2=Remeber Mothers Day
TTITLE3=King Of The Flat Top
TTITLE4=Grandpa's Old Guitar
TTITLE5=Homer Watsons Farm 
TTITLE6=Off The Shores Of Labrador
TTITLE7=Gold Wrapping Paper
TTITLE8=Whiskey Made Mommy That Way
TTITLE9=The Old Family Barn
TTITLE10=Tiny Red Slippers
TTITLE11=Mommy Does God Really Know
TTITLE12=The Miracle
TTITLE13=Table Number 9
TTITLE14=Old Glory
EXTD=
EXTT0=
EXTT1=
EXTT2=
EXTT3=
EXTT4=
EXTT5=
EXTT6=
EXTT7=
EXTT8=
EXTT9=
EXTT10=
EXTT11=
EXTT12=
EXTT13=
EXTT14=
PLAYORDER=
